<svg xmlns="http://www.w3.org/2000/svg" viewBox="0 0 42.92 108.31">
    <title>hand</title>
    <g id="Layer_2" data-name="Layer 2">
        <g id="Layer_1-2" data-name="Layer 1">
            <path d="M42,64.13a10.5,10.5,0,0,1-1.29,5.09,4.26,4.26,0,0,1-4,2.37,4.43,4.43,0,0,1-2.58-.75q-1.09-.74-1.22-1.15a5.48,5.48,0,0,1-1.29,3.59,4.11,4.11,0,0,1-3.32,1.56,7.55,7.55,0,0,1-2.85-.68,4.17,4.17,0,0,1-1.08-.81,7,7,0,0,1-.81,2.31q-1.36,2.58-3.66,2.58t-3.8-2.71a15.92,15.92,0,0,1-1.49-7.6V67l-1.36.41L12.17,94a36.59,36.59,0,0,1-.81,9q-1.5,4.88-5,4.88t-4.61-5.7c-.18-1-.34-2.19-.47-3.59s-.2-3-.2-4.82Q1,90.18,1,84.27T.77,70Q.63,61.55.57,57.21T.5,52.32V45.95A58.45,58.45,0,0,1,1.86,32.11,27,27,0,0,1,8.78,18.68q.27-3.39.34-4.82a30.27,30.27,0,0,1,.34-3.19H5.11V.5H37.4V10.81H34.55V14.2Q36.86,19,39.1,24.92A50.44,50.44,0,0,1,42,37.54a91.94,91.94,0,0,1,.41,9.9q0,6.51-.07,10T42,64.13ZM40.25,46.49V41.61a49.86,49.86,0,0,0-4.48-20.21,22.55,22.55,0,0,0-1.9-3.73q-1.22-2-2.71-4.27l.54-.27,1.08.14V10.67h-21l-.41,6,2-.41.41.14q0,.41-3.39,3.93Q9,21.8,8.1,23t-1.63,2a15.94,15.94,0,0,0-1.7,4.07,46.92,46.92,0,0,0-1.29,6.51q-.54,3.8-.75,6.92t-.2,5.83l.14,2.17A32,32,0,0,0,3.76,54.5a23.86,23.86,0,0,0,2.31,5,7,7,0,0,0,2.31,2.31q2.17,1.36,3.32,2.1a4.12,4.12,0,0,1,1.42,1.29,3.64,3.64,0,0,0,.95-1.9,9.37,9.37,0,0,0-1.36-4.48q-1-1.08-1.76-2.1t-1.76-2.1l.54-.41a4.47,4.47,0,0,1,1.08.27q-.14,0,.68.27.13-1.09.27-2.71t.14-1.76A7.22,7.22,0,0,0,11.08,47q-.81-1.63-1.63-3.39.81-.27,2.71,1.22a2.05,2.05,0,0,0,.34.27,3.48,3.48,0,0,1,.48.41l2.71-3.12a28.36,28.36,0,0,0,2.51-3.73A25,25,0,0,0,19.9,35a32.2,32.2,0,0,0,1.76-8.41q.54-4.48,1.36-4.48a2.45,2.45,0,0,1,.27.68,6.5,6.5,0,0,1,.41,1.9,36.61,36.61,0,0,1-1.42,10,24.52,24.52,0,0,1-5.36,9.5l-1.56,1.56a22.52,22.52,0,0,1-2.1,1.83l.41,3.12a19.26,19.26,0,0,1-.14,2.24q-.14,1.15-.41,2.51a4.49,4.49,0,0,1-.27,1.09l1.76,2a23.11,23.11,0,0,1,.95-5.7q1.22-3.53,3.93-3.53a6,6,0,0,1,2.85.81,9,9,0,0,1,1.36,1.09,4.2,4.2,0,0,1,1.49-2.85A4.2,4.2,0,0,1,28,46.9a5.19,5.19,0,0,1,2.71.95,6,6,0,0,1,1.09,1.09,7.05,7.05,0,0,1,1.36-3.05,3.32,3.32,0,0,1,2.71-1.15,6.44,6.44,0,0,1,3.12.81,2.2,2.2,0,0,1,.54.41A4.32,4.32,0,0,0,40.25,46.49ZM11.35,65.75,8.78,64.2a26.06,26.06,0,0,1-2.44-1.7,16.35,16.35,0,0,1-3.66-4.88L3.21,94a44.78,44.78,0,0,0,.61,8.28q.61,3.12,2.78,3.12t2.78-3q.74-3,.75-10.85ZM35.23,8.5v-6H7.28v6ZM23,64.67l.27-5.56q0-4.75-.75-6.24a2.49,2.49,0,0,0-2.37-1.49,2.29,2.29,0,0,0-2,1.08,8.32,8.32,0,0,0-1.15,2.78,28,28,0,0,0-.61,3.87q-.2,2.17-.2,4.34v4.07q0,1.36.14,2.85a12,12,0,0,0,.54,2.71,6.16,6.16,0,0,0,1,2,1.93,1.93,0,0,0,1.56.75,3.09,3.09,0,0,0,2.17-.88,2.92,2.92,0,0,0,.95-2.24q.13-1.22.27-3.8T23,64.67Zm8.41-8.28a16.08,16.08,0,0,0-.2-2.51,12.18,12.18,0,0,0-.61-2.37,6.45,6.45,0,0,0-1-1.83A1.93,1.93,0,0,0,28,48.93q-1.49,0-2.24,2A11.74,11.74,0,0,0,25.06,55L24.92,68.6A4,4,0,0,0,25.87,71a2.83,2.83,0,0,0,2.31,1.22q1.9,0,2.65-2.24a18.09,18.09,0,0,0,.75-5.63ZM40,51.92A7,7,0,0,0,39,48.66a3.16,3.16,0,0,0-3-1.76,2,2,0,0,0-1.83,1.29,6.73,6.73,0,0,0-.61,2.92l.14,15.47A2.61,2.61,0,0,0,35,68.88a2.19,2.19,0,0,0,1.36.41q2.17,0,3-2.85a26.66,26.66,0,0,0,.81-7.19Z"
                  fill="none" stroke="#000"/>
        </g>
    </g>
</svg>