<svg xmlns="http://www.w3.org/2000/svg" viewBox="0 0 138.55 90.46">
    <title>hi</title>
    <g id="Layer_2" data-name="Layer 2">
        <g id="Layer_1-2" data-name="Layer 1">
            <path d="M18.86,16.21v27.1H64.43V16.21q0-7.44-2.39-10.89T53,1.86a24.18,24.18,0,0,0-5.31.66L47.42,1.2a19.12,19.12,0,0,1,6-.8q7,0,10,3.92t2.92,11.89V74.26q0,8-2.92,11.89t-10,3.92a19.15,19.15,0,0,1-6-.8l.27-1.33A24.06,24.06,0,0,0,53,88.6q6.64,0,9-3.45t2.39-10.89V44.9H18.86V74.26q0,7.71,2.46,11t9,3.32a24.08,24.08,0,0,0,5.31-.66l.27,1.33a19.15,19.15,0,0,1-6,.8q-10.36,0-12-8.77-1.73,8.77-12,8.77a19.15,19.15,0,0,1-6-.8l.27-1.33a24.06,24.06,0,0,0,5.31.66q6.64,0,9-3.45T17,74.26V16.21q0-7.44-2.39-10.89t-9-3.45a24.18,24.18,0,0,0-5.31.66L0,1.2A19.12,19.12,0,0,1,6,.4q10.23,0,12,8.77Q19.53.4,29.89.4a19.12,19.12,0,0,1,6,.8L35.6,2.52a24.19,24.19,0,0,0-5.31-.66q-6.51,0-9,3.32T18.86,16.21Zm52.74,0V74.26q0,7.44,2.39,10.89t9,3.45a24.08,24.08,0,0,0,5.31-.66l.27,1.33a19.16,19.16,0,0,1-6,.8q-7,0-10-3.92T69.74,74.26V16.21q0-8,2.92-11.89T82.63.4a19.13,19.13,0,0,1,6,.8l-.27,1.33A24.2,24.2,0,0,0,83,1.86q-6.64,0-9,3.45T71.6,16.21Z"/>
            <path d="M106.54,2.92a3.17,3.17,0,0,1-.8,2.13,2.89,2.89,0,0,1-4.25,0,3.17,3.17,0,0,1-.8-2.12,2.92,2.92,0,1,1,5.84,0Zm-3.72,71.34V26h1.73V73.86q0,4.38.2,6.58a14.88,14.88,0,0,0,1.2,4.52A5.69,5.69,0,0,0,109,88.14a14.74,14.74,0,0,0,5.58.86,10.23,10.23,0,0,0,5.25-1.06l.8.93q-2,1.59-6.38,1.59-7.17,0-9.3-3.72T102.82,74.26Z"/>
            <path d="M138.55,86.75a3.17,3.17,0,0,1-.8,2.13,2.89,2.89,0,0,1-4.25,0,3.17,3.17,0,0,1-.8-2.12,2.92,2.92,0,1,1,5.84,0Z"/>
        </g>
    </g>
</svg>