<svg xmlns="http://www.w3.org/2000/svg" viewBox="0 0 28.64 13.16"><title>new_logo</title><g id="Layer_2" data-name="Layer 2"><g id="Layer_3" data-name="Layer 3"><path d="M14.07.16V.38C11.43.38,11.48,3,11.48,4.7V13H10.9L3.15,3V8.44c0,1.6,0,4.31,2.39,4.31V13H.27v-.24c2.65,0,2.65-2.67,2.65-4.31V2.73l-.75-1C1,.31.47.42,0,.38V.16H3.37l7.87,10.17V4.7c0-1.69,0-4.32-2.38-4.32V.16Z" fill="#fefafd"/><path d="M24.56,13.16a7.59,7.59,0,0,1-4.33-1V8.64h.22c.2,2.22,1,4.28,4.11,4.28,2.77,0,3.14-3.08,1-4.59l-3-1.95c-1.73-1.15-3.39-2.81-2-5A4,4,0,0,1,24,0a9.13,9.13,0,0,1,4.17.86V3.92H27.9C27.73,2.13,27,.24,24,.24c-2,0-3.46,2.53-.71,4.32l3,2c2.44,1.6,2.84,3.63,1.89,5.12C28.17,11.66,27.39,13.16,24.56,13.16Z" fill="#fefafd"/><path d="M18.28,8.67v.07H16.91V8.67c.47,0,0-.61,0-.61L16.17,7l-.26.39c-.76,1.14-.84,1.28-.18,1.28v.07H14.18V8.67c.37,0,.72.08,1.67-1.33l.27-.4L15,5.39c-.36-.45-.46-.54-.78-.54V4.78h1.43v.07c-.21,0-.42.13,0,.66l.71,1,.27-.4c.56-.9.86-1.29,0-1.29V4.78h1.72v.07c-.48,0-.76,0-1.64,1.35l-.28.41,1.07,1.54A.93.93,0,0,0,18.28,8.67Z" fill="#6ec6d9"/></g></g></svg>