<svg id="Layer_1" data-name="Layer 1" xmlns="http://www.w3.org/2000/svg" viewBox="0 0 929.42 929.42">
    <title>society6</title>
    <path d="M557.73,483.28C539,552.84,533.67,684.73,595.19,677.7c62.43-7.13,103.45-114.15,82.94-190.85C646,413.72,562.91,464,557.73,483.28Z"
          transform="translate(-6.73 -14.69)"/>
    <path d="M471.44,14.69C214.79,14.69,6.73,222.75,6.73,479.4S214.79,944.11,471.44,944.11,936.15,736,936.15,479.4,728.09,14.69,471.44,14.69Zm-41.29,612.1c-26.83,63.3-81,70.63-119.46,76.77-105.23,10.7-199.77-25.86-161.42-92.75C209.92,562.65,257.19,626,267,683c63.32-1.78,115-74.91,16.05-109.69C143.92,535,165.33,395,292.86,378s166,29.29,165.88,53.51c-.06,9.79-3.46,17.38-5.9,23.06a38.26,38.26,0,0,1-17.49,18.79c-58.17,30.46-92.64-47.07-94.33-76.63,0,0-50.83,1.78-57.08,41.92,3.57,48.16,42.81,46.37,88.29,71.35,38.9,21.35,57.57,30.32,63.84,69.84A85.92,85.92,0,0,1,430.15,626.79Zm5.4-91.79c9.81-96.32,71.76-265.22,342.67-299.83v31.4s-162.52,11.59-206,173.33C607.5,398.7,795,366.45,798.49,528.21,806.55,715.15,420.39,804.33,435.55,535Z"
          transform="translate(-6.73 -14.69)"/>
</svg>